<?xml version="1.0" encoding="UTF-8" standalone="no"?>
<!-- Created with Inkscape (http://www.inkscape.org/) -->

<svg
   xmlns:dc="http://purl.org/dc/elements/1.1/"
   xmlns:cc="http://creativecommons.org/ns#"
   xmlns:rdf="http://www.w3.org/1999/02/22-rdf-syntax-ns#"
   xmlns:svg="http://www.w3.org/2000/svg"
   xmlns="http://www.w3.org/2000/svg"
   xmlns:sodipodi="http://sodipodi.sourceforge.net/DTD/sodipodi-0.dtd"
   xmlns:inkscape="http://www.inkscape.org/namespaces/inkscape"
   width="88.26667mm"
   height="10.874739mm"
   viewBox="0 0 312.75592 38.532539"
   id="svg3750"
   version="1.1"
   inkscape:version="0.91 r13725"
   sodipodi:docname="cooper-tires.svg">
  <defs
     id="defs3752" />
  <sodipodi:namedview
     id="base"
     pagecolor="#ffffff"
     bordercolor="#666666"
     borderopacity="1.0"
     inkscape:pageopacity="0.0"
     inkscape:pageshadow="2"
     inkscape:zoom="0.51598204"
     inkscape:cx="196.80683"
     inkscape:cy="-1.0461161"
     inkscape:document-units="px"
     inkscape:current-layer="layer1"
     showgrid="false"
     fit-margin-top="1.8"
     fit-margin-left="1.8"
     fit-margin-right="1.8"
     fit-margin-bottom="1.8"
     inkscape:window-width="1280"
     inkscape:window-height="744"
     inkscape:window-x="-4"
     inkscape:window-y="-4"
     inkscape:window-maximized="1" />
  <metadata
     id="metadata3755">
    <rdf:RDF>
      <cc:Work
         rdf:about="">
        <dc:format>image/svg+xml</dc:format>
        <dc:type
           rdf:resource="http://purl.org/dc/dcmitype/StillImage" />
        <dc:title></dc:title>
      </cc:Work>
    </rdf:RDF>
  </metadata>
  <g
     inkscape:label="Layer 1"
     inkscape:groupmode="layer"
     id="layer1"
     transform="translate(-175.24041,-486.60245)">
    <path
       inkscape:connector-curvature="0"
       id="path3770"
       style="fill:#18468b;fill-opacity:1;fill-rule:nonzero;stroke:none"
       d="m 480.44809,500.44816 c 0.17876,0 0.3778,0.009 0.3778,-0.22839 0,-0.19043 -0.15342,-0.21812 -0.29441,-0.21812 l -0.29533,0 0,0.44651 0.21194,0 z m -0.21194,0.75718 -0.18476,0 0,-1.35758 0.51833,0 c 0.30593,0 0.44093,0.13334 0.44093,0.37634 0,0.2388 -0.15665,0.34413 -0.31192,0.37776 l 0.37642,0.60348 -0.20963,0 -0.36906,-0.60348 -0.26031,0 0,0.60348 z m 1.19608,-0.67959 c 0,-0.55202 -0.41006,-0.98829 -0.95788,-0.98829 -0.54736,0 -0.95742,0.43627 -0.95742,0.98829 0,0.55072 0.41006,0.98699 0.95742,0.98699 0.54782,0 0.95788,-0.43627 0.95788,-0.98699 m 0.18614,0 c 0,0.62826 -0.51281,1.14065 -1.14402,1.14065 -0.63076,0 -1.14172,-0.51239 -1.14172,-1.14065 0,-0.62956 0.51096,-1.14361 1.14172,-1.14361 0.63121,0 1.14402,0.51405 1.14402,1.14361" />
    <path
       inkscape:connector-curvature="0"
       id="path3772"
       style="fill:#18468b;fill-opacity:1;fill-rule:nonzero;stroke:none"
       d="m 404.49584,499.31377 -12.13039,0 c -0.0613,0 -0.11565,0.0411 -0.13316,0.0995 l -0.90628,2.84074 c -0.0134,0.0425 -0.006,0.0909 0.0221,0.12601 0.0276,0.0367 0.0686,0.0587 0.1138,0.0587 l 6.06842,0 c -0.11288,0.35725 -3.16298,10.06272 -3.16298,10.06272 -0.006,0.0131 -0.007,0.0277 -0.007,0.0424 0,0.0308 0.009,0.0585 0.0263,0.085 0.0281,0.0351 0.0705,0.057 0.11564,0.057 l 5.15616,0 c 0.0613,0 0.11702,-0.041 0.13453,-0.0995 0,0 3.13488,-9.95145 3.19524,-10.14763 l 5.74867,0 c 0.0599,0 0.11703,-0.0396 0.135,-0.10114 l 0.87679,-2.83931 c 0.005,-0.0131 0.006,-0.0277 0.006,-0.0411 0,-0.0322 -0.0101,-0.0614 -0.0276,-0.0848 -0.0267,-0.0367 -0.0691,-0.0587 -0.11288,-0.0587 l -5.11791,0" />
    <path
       inkscape:connector-curvature="0"
       id="path3774"
       style="fill:#18468b;fill-opacity:1;fill-rule:nonzero;stroke:none"
       d="m 289.80171,499.32367 -15.63294,0.0146 c -1.57528,-0.016 -3.61682,1.03667 -4.1628,2.77039 l -2.27422,7.12241 c -0.15527,0.75428 0.0498,1.2359 0.43034,1.77188 0.81735,1.18912 2.54651,1.72059 5.60537,1.72059 l 11.2536,-0.0117 c 0.0512,0 0.0963,-0.0279 0.1198,-0.0732 l 1.51722,-2.89926 c 0.0217,-0.041 0.0203,-0.0909 -0.005,-0.13191 -0.0249,-0.0409 -0.0687,-0.0659 -0.11565,-0.0659 l -6.36974,0.0103 c 0,0 -6.51166,-0.004 -6.8586,-0.004 0.10505,-0.33095 1.58127,-4.99037 1.58127,-4.99037 0,0 0.45705,-1.44521 0.48193,-1.52584 0.44185,-0.40407 1.05833,-0.58422 1.89319,-0.53888 l 10.98821,0 c 0.0484,0 0.0954,-0.0263 0.11703,-0.0702 l 1.55086,-2.90088 c 0.0203,-0.041 0.0203,-0.0921 -0.005,-0.13172 -0.0249,-0.0411 -0.0686,-0.0659 -0.11565,-0.0659" />
    <path
       inkscape:connector-curvature="0"
       id="path3776"
       style="fill:#18468b;fill-opacity:1;fill-rule:nonzero;stroke:none"
       d="m 301.4967,508.99168 c -0.0525,0.16393 -0.49345,0.57394 -1.8918,0.57394 -0.003,0 -5.92928,-0.0117 -6.2306,-0.0117 0.0935,-0.29298 1.56652,-4.90998 1.56652,-4.90998 l 0.50543,-1.58863 c 0.0746,-0.10261 0.4566,-0.51115 1.86232,-0.52428 l 5.14279,-0.0308 c 0,0 1.08827,0.0117 1.09979,0.0117 -0.37781,1.20963 -1.98395,6.29958 -2.05445,6.47973 m 7.35666,-7.60564 c -0.0686,-0.12887 -0.73212,-1.26957 -2.91834,-1.78505 -0.86527,-0.20498 -1.44534,-0.22263 -2.17746,-0.24313 l -0.32206,-0.0103 c -0.005,0 -6.75631,0 -6.75631,0 l -2.10282,-0.003 c -2.13922,0 -3.85271,1.14213 -4.46919,2.9768 l -2.17608,6.89711 c -0.003,0.007 -0.0101,0.0511 -0.0115,0.057 -0.0746,0.51543 0.0908,1.07915 0.47732,1.62826 0.85652,1.24183 2.61978,1.82011 5.54548,1.82011 l 6.64343,0 c 3.59055,0 5.45471,-0.7892 6.04308,-2.55946 0,-0.002 2.34471,-7.41545 2.34471,-7.41545 0.0101,-0.0396 0.1889,-0.78178 -0.12025,-1.3631" />
    <path
       inkscape:connector-curvature="0"
       id="path3778"
       style="fill:#18468b;fill-opacity:1;fill-rule:nonzero;stroke:none"
       d="m 344.2544,502.81991 c 0,0.001 -0.25617,0.81998 -0.25617,0.81998 -0.17693,0.55649 -0.59021,0.57842 -1.36472,0.57105 l -0.18752,-10e-4 c 0,0 -5.5934,-0.006 -6.65218,-0.006 0.0862,-0.25774 0.32805,-0.97673 0.32805,-0.97673 l 0.0686,-0.21525 c 0.0691,-0.21669 0.2359,-0.4935 0.92425,-0.4935 0.0599,0 5.82468,-0.007 6.41489,0.007 0.55658,0.0248 0.68973,0.13767 0.72198,0.18591 0.009,0.0117 0.0263,0.0396 0.003,0.10836 m 5.17044,-1.72492 c -0.76115,-1.02948 -2.60642,-1.70889 -4.69588,-1.73229 l -9.0683,-0.0293 c -1.69277,0 -3.86286,0.43338 -4.59682,2.49662 l -0.0189,0.0498 c -0.1244,0.33533 -2.23137,7.0463 -2.32075,7.33173 0,0.001 -1.0574,3.33733 -1.0574,3.33733 -0.0129,0.0409 -0.006,0.0848 0.0207,0.12003 0.0249,0.0337 0.064,0.0542 0.10828,0.0542 l 5.19393,0 c 0.0599,0 0.11242,-0.0367 0.13039,-0.0938 0,0 1.59462,-5.02696 1.64991,-5.20421 0.19352,0 10.8417,0.009 10.8417,0.009 1.85402,0 2.7603,-0.43052 3.12936,-1.48769 0.005,-0.0103 0.10274,-0.31929 0.10274,-0.31929 l 0.89015,-2.85982 c 0.17278,-0.58851 0.0659,-1.1684 -0.30915,-1.67217" />
    <path
       inkscape:connector-curvature="0"
       id="path3780"
       style="fill:#18468b;fill-opacity:1;fill-rule:nonzero;stroke:none"
       d="m 351.17657,502.10844 c -0.004,0.009 -0.0249,0.0439 -0.0276,0.0542 -0.0207,0.063 -1.99317,6.33897 -2.0738,6.56017 -0.28105,0.75267 -0.2018,1.45258 0.23314,2.0778 0.86251,1.2417 2.99758,1.91084 4.57009,1.91084 l 12.25894,0.0103 c 0.0516,0 0.0968,-0.0263 0.11887,-0.0717 l 1.45272,-2.83355 c 0.0189,-0.0439 0.0189,-0.0922 -0.005,-0.1303 -0.0263,-0.041 -0.0686,-0.0644 -0.11427,-0.0644 l -6.25271,0.0264 c 0,0 -6.75631,-0.0205 -6.97885,-0.022 0.0894,-0.27106 0.67821,-2.08232 0.72797,-2.2346 0.18891,0 9.62166,0.022 9.62166,0.022 0.0571,0 0.10873,-0.0381 0.12762,-0.0923 l 0.90628,-2.86415 c 0.005,-0.0103 0.006,-0.0263 0.006,-0.0394 0,-0.0264 -0.0101,-0.0541 -0.0263,-0.0777 -0.0249,-0.0337 -0.0631,-0.0542 -0.10689,-0.0542 0,0 -9.11853,-0.0234 -9.48298,-0.0234 0.0848,-0.23433 0.26355,-0.72041 0.26355,-0.72041 l 0.047,-0.13915 c 0.20503,-0.64577 1.18872,-0.66485 1.48635,-0.656 l 11.26328,0.0234 c 0.047,0 0.0908,-0.0277 0.11565,-0.0702 l 1.72962,-3.13212 c 0.0216,-0.0425 0.0189,-0.0909 -0.003,-0.13177 -0.0235,-0.041 -0.0673,-0.066 -0.11426,-0.066 l -14.38526,-0.0234 c -1.71027,-0.0864 -4.13377,0.10546 -5.35796,2.76173" />
    <path
       inkscape:connector-curvature="0"
       id="path3782"
       style="fill:#18468b;fill-opacity:1;fill-rule:nonzero;stroke:none"
       d="m 411.26136,499.31377 c -0.0631,0 -0.11887,0.0411 -0.13638,0.0995 l -4.13976,13.09836 c -0.0129,0.0425 -0.006,0.0907 0.0207,0.12601 0.0276,0.0365 0.07,0.0585 0.11564,0.0585 l 5.15892,-0.0103 c 0.0627,0 0.11703,-0.041 0.1373,-0.0995 l 4.12363,-13.08808 c 0.0147,-0.0425 0.006,-0.0893 -0.0203,-0.12583 -0.0267,-0.0367 -0.0691,-0.0587 -0.11611,-0.0587 l -5.14371,0" />
    <path
       inkscape:connector-curvature="0"
       id="path3784"
       style="fill:#18468b;fill-opacity:1;fill-rule:nonzero;stroke:none"
       d="m 321.94393,508.99168 c -0.0544,0.16232 -0.49668,0.57394 -1.89226,0.57394 -0.003,0 -5.92605,-0.0117 -6.2306,-0.0117 0.0922,-0.29298 1.55961,-4.88943 1.55961,-4.88943 l 0.51096,-1.60918 c 0.0746,-0.10261 0.45245,-0.51115 1.86277,-0.52428 l 5.14234,-0.0308 c 0,0 1.08965,0.0117 1.10117,0.0117 -0.40546,1.29888 -1.98672,6.30534 -2.05399,6.47973 m 7.35666,-7.60564 -0.002,0 c -0.0673,-0.12887 -0.73211,-1.26957 -2.91649,-1.78505 -0.86711,-0.20498 -1.44534,-0.22263 -2.17746,-0.24313 l -0.32068,-0.0103 c -0.005,0 -6.7563,0 -6.7563,0 l -2.10605,-0.003 c -2.13784,0 -3.85088,1.14213 -4.46873,2.97841 l -2.17608,6.8955 c -0.003,0.007 -0.009,0.0511 -0.0101,0.057 -0.0751,0.51543 0.0889,1.07767 0.47733,1.62826 0.8579,1.24183 2.61932,1.82011 5.54686,1.82011 l 6.64067,0 c 3.59009,0 5.45563,-0.7892 6.04584,-2.55946 0,-0.002 2.34425,-7.41545 2.34425,-7.41545 0.0106,-0.0396 0.18614,-0.78178 -0.12117,-1.3631" />
    <path
       inkscape:connector-curvature="0"
       id="path3786"
       style="fill:#18468b;fill-opacity:1;fill-rule:nonzero;stroke:none"
       d="m 384.79363,502.77347 c 0,0.001 -0.25664,0.82284 -0.25664,0.82284 -0.17554,0.55648 -0.59159,0.57846 -1.36886,0.56961 l -0.18153,-0.001 c -0.003,0 -5.59524,-0.006 -6.65402,-0.006 0.088,-0.25769 0.32666,-0.97078 0.32666,-0.97078 l 0.0719,-0.2212 c 0.0673,-0.21669 0.23405,-0.49189 0.92378,-0.49189 0.0571,0 5.82377,-0.009 6.41675,0.006 0.55335,0.025 0.68834,0.13771 0.71875,0.18614 0.009,0.0117 0.0281,0.0394 0.003,0.10689 m 5.17182,-1.72511 c -0.76437,-1.02782 -2.6078,-1.70723 -4.69634,-1.72939 l -10e-4,0 -12.81091,0.0148 c -0.059,0 -0.1115,0.0365 -0.129,0.0938 l -3.06347,9.7391 c 0,-0.005 -0.004,0.0117 -1.05694,3.33568 -0.0134,0.0425 -0.007,0.0864 0.0189,0.12149 0.0249,0.0336 0.0659,0.0542 0.10827,0.0542 l 5.19532,0 c 0.0585,0 0.1115,-0.038 0.12901,-0.0938 0,0 1.596,-4.9902 1.65314,-5.16606 0.13914,-10e-4 0.51971,-0.004 0.51971,-0.004 0,0 4.62861,-0.0234 4.79263,-0.0234 0.12164,0.34698 0.55934,1.45691 2.05444,5.24793 0.0207,0.0528 0.0705,0.085 0.12487,0.085 l 4.97277,-0.0146 c 0.0424,0 0.0834,-0.0205 0.10828,-0.0556 0.0161,-0.0234 0.0249,-0.0513 0.0249,-0.0792 0,-0.0146 0,-0.0263 -0.006,-0.0411 0,0 -1.47622,-4.83364 -1.57251,-5.14841 1.72916,-0.0308 2.59305,-0.46416 2.95059,-1.48336 0.003,-0.009 0.0848,-0.26801 0.0848,-0.26801 l 0.9049,-2.90949 c 0.0544,-0.18448 0.082,-0.36611 0.082,-0.54626 0,-0.39683 -0.13177,-0.78035 -0.38794,-1.129" />
    <path
       inkscape:connector-curvature="0"
       id="path3788"
       style="fill:#18468b;fill-opacity:1;fill-rule:nonzero;stroke:none"
       d="m 430.63875,502.77347 c 0,0.001 -0.25802,0.82284 -0.25802,0.82284 -0.17554,0.55648 -0.58975,0.57846 -1.36748,0.56961 l -0.18291,-0.001 c 0,0 -5.59386,-0.004 -6.65264,-0.006 0.0866,-0.25917 0.33127,-0.98391 0.33127,-0.98391 l 0.0673,-0.2095 c 0.0686,-0.21526 0.2359,-0.49046 0.92379,-0.49046 0.0571,0 5.82515,-0.009 6.41535,0.006 0.55658,0.025 0.68973,0.13771 0.72199,0.18614 0.007,0.0117 0.0263,0.0394 10e-4,0.10689 m -4.19551,4.56134 c -0.0143,-0.025 -0.0249,-0.0528 -0.0249,-0.0792 0,-0.009 0.003,-0.0177 0.006,-0.0248 0,0.0146 0.006,0.0425 0.0263,0.10528 -10e-4,-0.001 -0.004,-0.001 -0.007,-0.001 m 9.36594,-6.28645 c -0.76436,-1.02925 -2.60641,-1.70723 -4.69587,-1.72939 l -0.002,0 -12.81091,0.0148 c -0.0585,0 -0.11011,0.038 -0.12762,0.0938 l -3.06485,9.7391 -1.05694,3.33568 c -0.012,0.0425 -0.005,0.0864 0.0203,0.12149 0.0249,0.0336 0.0645,0.0542 0.10827,0.0542 l 5.19716,0 c 0.0585,0 0.10828,-0.038 0.12717,-0.0938 0,0 1.59785,-4.9902 1.65175,-5.16606 0.14053,-10e-4 0.51557,-0.004 0.51557,-0.004 0,0 4.63276,-0.0234 4.79862,-0.0234 0.12118,0.34698 0.55934,1.45691 2.05445,5.24793 0.0217,0.0528 0.0714,0.085 0.12578,0.085 l 4.96955,-0.0146 c 0.0442,0 0.0839,-0.0205 0.10874,-0.0556 0.0175,-0.0234 0.0263,-0.0513 0.0263,-0.0792 0,-0.0131 -0.001,-0.0263 -0.006,-0.0411 0,0 -1.47575,-4.83364 -1.57251,-5.14841 1.7264,-0.0308 2.59305,-0.46416 2.95059,-1.48336 0.003,-0.0103 0.1009,-0.32072 0.1009,-0.32072 l 0.89015,-2.85678 c 0.0544,-0.18305 0.0806,-0.36611 0.0806,-0.54478 0,-0.39831 -0.13039,-0.78183 -0.38933,-1.13048" />
    <path
       inkscape:connector-curvature="0"
       id="path3790"
       style="fill:#18468b;fill-opacity:1;fill-rule:nonzero;stroke:none"
       d="m 438.0682,502.10844 c -0.006,0.009 -0.0249,0.0439 -0.0309,0.0542 -0.0189,0.063 -1.98994,6.33897 -2.07057,6.56017 -0.28105,0.75267 -0.20181,1.45258 0.23313,2.0778 0.86113,1.2417 2.99758,1.91084 4.56871,1.91084 l 12.26032,0.0103 c 0.0498,0 0.0954,-0.0277 0.11887,-0.0717 l 1.45272,-2.83355 c 0.0189,-0.0439 0.0189,-0.0922 -0.006,-0.1303 -0.0235,-0.041 -0.0659,-0.0644 -0.11426,-0.0644 l -6.25272,0.0264 c 0,0 -6.75493,-0.0205 -6.97746,-0.022 0.0866,-0.26654 0.67636,-2.08089 0.72797,-2.2346 0.18752,0 9.62027,0.022 9.62027,0.022 0.0571,0 0.10874,-0.0381 0.12763,-0.0923 l 0.90766,-2.86415 c 0.005,-0.0103 0.006,-0.0263 0.006,-0.0394 0,-0.0264 -0.007,-0.0541 -0.0263,-0.0777 -0.0235,-0.0337 -0.0645,-0.0542 -0.10551,-0.0542 0,0 -9.1199,-0.0234 -9.48435,-0.0234 0.0848,-0.23124 0.25755,-0.70876 0.25755,-0.70876 l 0.0516,-0.14937 c 0.20641,-0.6472 1.19009,-0.66628 1.48635,-0.65743 10e-4,0 11.26327,0.0234 11.26327,0.0234 0.0484,0 0.0922,-0.0277 0.11565,-0.0702 l 1.731,-3.13212 c 0.0217,-0.0425 0.0217,-0.0923 -0.002,-0.13177 -0.0263,-0.041 -0.0673,-0.066 -0.11564,-0.066 l -14.38526,-0.0234 c -1.70889,-0.0864 -4.13377,0.10546 -5.35796,2.76173" />
    <path
       inkscape:connector-curvature="0"
       id="path3792"
       style="fill:#18468b;fill-opacity:1;fill-rule:nonzero;stroke:none"
       d="m 469.31658,512.69037 -14.25349,0.0322 c -0.047,0 -0.0894,-0.0248 -0.11426,-0.0644 -0.0235,-0.0394 -0.0249,-0.0893 -0.004,-0.13029 l 1.45226,-2.83338 c 0.0221,-0.0454 0.0673,-0.0732 -0.003,-0.0732 l 12.96479,0.0219" />
    <path
       inkscape:connector-curvature="0"
       id="path3794"
       style="fill:#18468b;fill-opacity:1;fill-rule:nonzero;stroke:none"
       d="m 469.2811,512.69037 c 0.10966,10e-4 2.28851,-0.0599 3.49657,-0.75552 1.41033,-0.80976 1.60476,-1.16554 1.9153,-2.14821 l 1.06615,-3.36792 c 0.009,-0.0189 0.29442,-0.73936 -0.12163,-1.35882 -0.36906,-0.55054 -1.15554,-0.82735 -2.33872,-0.82735 l -10.70256,0 c 0.0765,-0.25917 0.33542,-1.1056 0.33542,-1.1056 0.0101,-0.0423 0.18891,-0.79657 1.16429,-0.82288 0.83901,-0.0248 5.08106,-0.007 5.12344,-0.007 l 7.10924,0.0103 c 0.0511,0 0.0968,-0.0277 0.11887,-0.0733 l 1.45226,-2.83337 c 0.0207,-0.0425 0.0194,-0.0907 -0.007,-0.1303 -0.0217,-0.0396 -0.0659,-0.0645 -0.11243,-0.0645 l -14.34609,0.0279 c -0.17693,-0.005 -4.44984,-0.0513 -5.36533,2.83771 l -0.89614,2.82471 c -0.0438,0.13772 -0.41144,1.36315 0.16725,1.79961 0.51234,0.38804 1.12743,0.53884 2.18621,0.53884 l 10.57816,0 c -0.0954,0.30021 -0.76022,2.4088 -0.76022,2.4088" />
    <path
       inkscape:connector-curvature="0"
       id="path3796"
       style="fill:#18468b;fill-opacity:1;fill-rule:nonzero;stroke:none"
       d="m 200.58413,507.35983 c -0.34127,0.93714 -0.20213,1.86259 0.41287,2.75417 2.41617,3.50274 11.78327,5.97308 23.31041,6.14442 7.35661,0.39091 14.64,-0.37489 20.50616,-2.14966 2.81282,-0.93282 4.57285,-1.82891 5.55423,-2.4176 l 0.004,-0.003 c 0.10551,-0.0704 0.35293,-0.23576 0.25341,-0.41144 -0.0613,-0.1069 -0.23406,-0.0322 -0.29856,-0.004 -0.005,0.001 -0.13316,0.0675 -0.13316,0.0675 -4.36828,2.13774 -11.64891,3.15839 -19.9851,2.80259 -2.33688,-0.10099 -4.57885,-0.31192 -6.66117,-0.62831 -0.96359,-0.13011 -1.85969,-0.2928 -2.66654,-0.48161 -5.26862,-1.11444 -8.83706,-2.91544 -9.79038,-4.94058 -0.35274,-0.74976 -0.33242,-1.51123 0.0616,-2.26247 1.71174,-3.26674 9.31738,-5.98889 18.08298,-6.47502 1.76003,-0.13767 3.67211,-0.19637 5.68278,-0.17439 0.13638,-0.0146 0.16126,-0.0747 0.15942,-0.1215 -0.004,-0.0365 -0.0249,-0.0776 -0.11104,-0.0893 -0.007,-10e-4 -2.28896,-0.0909 -2.28896,-0.0909 -15.04712,-0.38499 -30.34335,3.65782 -32.09306,8.48142" />
    <path
       inkscape:connector-curvature="0"
       id="path3798"
       style="fill:#18468b;fill-opacity:1;fill-rule:nonzero;stroke:none"
       d="m 218.06653,493.00433 c -20.67594,0.4377 -35.65145,5.38851 -36.41869,12.03792 -0.5214,4.51743 5.89533,8.8284 17.60392,11.82881 2.69137,0.68823 6.04165,1.54618 12.47295,1.88598 0.34122,-0.016 0.41287,-0.15676 0.41591,-0.27087 0.003,-0.1231 -0.14937,-0.21525 -0.46129,-0.28256 -4.75752,-0.72207 -6.82814,-1.4058 -6.84721,-1.41318 -7.69636,-2.12607 -11.87685,-5.37249 -11.47425,-8.91029 0.57394,-5.03719 10.77595,-10.54738 29.16329,-11.33372 17.28922,-0.7658 29.05194,3.32834 31.73438,7.76961 0.69572,1.15098 0.82749,2.37213 0.39393,3.62709 -0.87587,2.53767 -4.07802,5.01669 -8.78587,6.80313 -3.31964,1.2593 -8.97017,2.51428 -14.39586,3.19802 -0.19305,0.0396 -0.31146,0.0952 -0.35569,0.16557 l -0.0189,0.10097 c 0.0189,0.0806 0.0894,0.17728 0.31469,0.17872 5.48973,-0.54623 11.7922,-1.8831 15.33162,-3.24931 5.06907,-1.95778 8.4182,-4.58331 9.43413,-7.39489 0.52156,-1.44074 0.40131,-2.85821 -0.35247,-4.21274 -3.02983,-5.42666 -17.29069,-10.96186 -37.7546,-10.52826" />
  </g>
</svg>
