<?xml version="1.0" encoding="UTF-8" standalone="no"?>
<svg
   xmlns:dc="http://purl.org/dc/elements/1.1/"
   xmlns:cc="http://creativecommons.org/ns#"
   xmlns:rdf="http://www.w3.org/1999/02/22-rdf-syntax-ns#"
   xmlns:svg="http://www.w3.org/2000/svg"
   xmlns="http://www.w3.org/2000/svg"
   xmlns:sodipodi="http://sodipodi.sourceforge.net/DTD/sodipodi-0.dtd"
   xmlns:inkscape="http://www.inkscape.org/namespaces/inkscape"
   width="400"
   height="110.28545"
   viewBox="0 0 400 110.28545"
   version="1.1"
   id="svg58"
   sodipodi:docname="Goodyear Dunlop Handelssysteme Logo 2020.svg"
   inkscape:version="0.92.4 (5da689c313, 2019-01-14)">
  <metadata
     id="metadata62">
    <rdf:RDF>
      <cc:Work
         rdf:about="">
        <dc:format>image/svg+xml</dc:format>
        <dc:type
           rdf:resource="http://purl.org/dc/dcmitype/StillImage" />
        <dc:title>logo-gdhs</dc:title>
      </cc:Work>
    </rdf:RDF>
  </metadata>
  <sodipodi:namedview
     pagecolor="#ffffff"
     bordercolor="#666666"
     borderopacity="1"
     objecttolerance="10"
     gridtolerance="10"
     guidetolerance="10"
     inkscape:pageopacity="0"
     inkscape:pageshadow="2"
     inkscape:window-width="1920"
     inkscape:window-height="1001"
     id="namedview60"
     showgrid="false"
     fit-margin-top="0"
     fit-margin-left="0"
     fit-margin-right="0"
     fit-margin-bottom="0"
     inkscape:zoom="1.9489631"
     inkscape:cx="139.1358"
     inkscape:cy="32.465233"
     inkscape:window-x="-9"
     inkscape:window-y="-9"
     inkscape:window-maximized="1"
     inkscape:current-layer="svg58" />
  <!-- Generator: Sketch 49.1 (51147) - http://www.bohemiancoding.com/sketch -->
  <title
     id="title2">logo-gdhs</title>
  <desc
     id="desc4">Created with Sketch.</desc>
  <defs
     id="defs8">
    <polygon
       id="path-1"
       points="31.184163,0.10842857 31.184163,32.820184 0.040597331,32.820184 0.040597331,0.10842857 " />
    <polygon
       id="path-3"
       points="159.58588,0.11354688 159.58588,42.959688 0.083361345,42.959688 0.083361345,0.11354688 " />
  </defs>
  <path
     d="M 15.326254,14.890223 V 66.849861 H 63.21974 V 48.576801 H 38.187594 V 34.593055 h 39.975117 v 28.28484 c 0,15.413517 -3.958335,19.385482 -16.347213,19.385482 H 16.347213 C 3.9583356,82.263377 0,78.291412 0,62.877895 V 19.657255 C 0,4.243739 3.9583356,0.271775 16.347213,0.271775 h 45.468285 c 12.005594,0 16.347213,3.813288 16.347213,18.590412 v 1.907488 L 63.21974,24.106935 V 14.890223 H 15.326254"
     id="Fill-1"
     mask="none"
     inkscape:connector-curvature="0"
     style="fill:#1a1919;fill-rule:evenodd;stroke:none;stroke-width:2.50648737" />
  <path
     style="fill:#1a1919;fill-rule:evenodd;stroke:none;stroke-width:2.50648737"
     inkscape:connector-curvature="0"
     id="Fill-4"
     d="m 109.60044,82.714084 h 38.2645 c 11.69695,0 20.59501,-1.442371 26.95245,-6.411482 9.15296,-7.053484 14.49246,-19.87815 14.49246,-35.425783 C 189.30985,15.227484 176.34175,0 151.80669,0 h -42.20625 z m 15.2555,-15.549336 V 14.747261 h 27.07905 c 14.36417,0 21.61125,8.976075 21.61125,25.809409 0,20.516745 -9.66108,26.608078 -28.98663,26.608078 z"
     mask="none" />
  <polyline
     style="fill:#1a1919;fill-rule:evenodd;stroke:none;stroke-width:1"
     points="86.4596273 0 92.4610707 0 92.4610707 12.7904554 111.21583 12.7904554 111.21583 0 117.267081 0 117.267081 33 111.21583 33 111.21583 18.8024994 92.4610707 18.8024994 92.4610707 33 86.4596273 33 86.4596273 0"
     id="Fill-5"
     mask="none"
     transform="scale(2.5064874)" />
  <path
     style="fill:#1a1919;fill-rule:evenodd;stroke:none;stroke-width:2.50648737"
     inkscape:connector-curvature="0"
     id="Fill-6"
     d="m 342.08369,14.427113 v 17.79378 h 40.31435 c 12.14418,0 16.14902,4.005259 16.14902,19.554594 v 11.382298 c 0,15.549335 -4.00484,19.556299 -16.14902,19.556299 h -39.93697 c -12.14416,0 -16.15065,-4.006964 -16.15065,-19.556299 V 60.913341 L 339.58006,57.3866 v 9.778148 h 45.69568 V 48.250449 h -40.31267 c -12.14253,0 -16.02432,-4.006964 -16.02432,-19.558001 V 19.556299 C 328.93875,4.006964 332.82054,0 344.96307,0 h 36.68355 c 11.51743,0 16.026,3.846889 16.026,18.113928 v 1.762519 l -13.27298,4.008667 v -9.458001 h -42.31595"
     mask="none" />
  <polygon
     style="fill:#005c9c;fill-rule:evenodd;stroke:none;stroke-width:1"
     points="37.763975,34 37.763975,1 35.776398,1 35.776398,34 "
     id="Fill-7"
     mask="none"
     transform="scale(2.5064874)" />
  <polygon
     style="fill:#ffe511;fill-rule:evenodd;stroke:none;stroke-width:1"
     points="81.490683,34 81.490683,1 79.503106,1 79.503106,34 "
     id="Fill-8"
     mask="none"
     transform="scale(2.5064874)" />
  <polygon
     id="Fill-9"
     mask="none"
     points="123.18655,0.11354688 123.18655,32.467016 125.58924,32.467016 125.58924,0.11354688 "
     style="fill:#d8232a;fill-rule:evenodd;stroke:none;stroke-width:1"
     transform="matrix(2.5064874,0,0,2.5064874,0,2.506487)" />
  <path
     d="m 2.3927476,99.734895 v 8.073315 h 6.8294409 v -2.75173 H 5.6583426 v -2.29367 h 5.7055234 v 4.46441 c 0,2.4166 -0.551006,3.05822 -2.3320864,3.05822 H 2.5410305 c -1.78108037,0 -2.33208635,-0.64162 -2.33208635,-3.05822 v -6.81871 c 0,-2.446915 0.5729114,-3.058224 2.33208635,-3.058224 h 6.4907491 c 1.6968284,0 2.3320864,0.580996 2.3320864,2.904974 v 0.33682 l -2.1416775,0.52037 V 99.734895 H 2.3927476"
     id="Fill-11"
     mask="none"
     inkscape:connector-curvature="0"
     style="fill:#1a1919;fill-rule:evenodd;stroke:none;stroke-width:2.50648737" />
  <path
     d="m 17.067705,107.80821 h 7.232164 v -8.073315 h -7.232164 z m 0.148284,-10.457924 h 6.935598 c 1.759174,0 2.332084,0.580996 2.332084,3.058224 v 6.81871 c 0,2.44691 -0.57291,3.05822 -2.332085,3.05822 h -6.935598 c -1.781081,0 -2.332087,-0.61131 -2.332087,-3.05822 v -6.81871 c 0,-2.477228 0.572912,-3.058224 2.332088,-3.058224 z"
     id="Fill-12"
     mask="none"
     inkscape:connector-curvature="0"
     style="fill:#1a1919;fill-rule:evenodd;stroke:none;stroke-width:2.50648737" />
  <path
     d="m 32.231322,107.80821 h 7.23048 v -8.073315 h -7.23048 z m 0.148284,-10.457924 h 6.933914 c 1.76086,0 2.333771,0.580996 2.333771,3.058224 v 6.81871 c -3e-6,2.44691 -0.572913,3.05822 -2.333773,3.05822 h -6.933914 c -1.78108,0 -2.333771,-0.61131 -2.333771,-3.05822 v -6.81871 c 0,-2.477228 0.572911,-3.058224 2.333773,-3.058224 z"
     id="Fill-13"
     mask="none"
     inkscape:connector-curvature="0"
     style="fill:#1a1919;fill-rule:evenodd;stroke:none;stroke-width:2.50648737" />
  <path
     d="m 50.448219,107.86884 c 2.776935,0 4.156977,-0.88581 4.156977,-4.24885 0,-2.6911 -1.039666,-3.945719 -3.117311,-3.945719 h -3.860411 v 8.194569 z M 45.421765,97.350286 h 6.044214 c 3.54194,0 5.387053,2.416607 5.387053,6.421264 0,4.37347 -1.993395,6.51389 -5.938059,6.51389 h -5.493208 z"
     id="Fill-14"
     mask="none"
     inkscape:connector-curvature="0"
     style="fill:#1a1919;fill-rule:evenodd;stroke:none;stroke-width:2.50648737" />
  <polyline
     id="Fill-15"
     mask="none"
     points="25.0332773 40.6820313 23.0789916 37.8393281 24.2547899 37.8393281 25.5321008 39.7669375 26.8268908 37.8393281 27.8507563 37.8393281 25.9045378 40.6578438 25.9045378 43 25.0332773 43 25.0332773 40.6820313"
     style="fill:#1a1919;fill-rule:evenodd;stroke:none;stroke-width:1"
     transform="matrix(2.5064874,0,0,2.5064874,0,2.506487)" />
  <polyline
     id="Fill-16"
     mask="none"
     points="28.6964706 37.8393281 32.5378151 37.8393281 32.5378151 38.7544219 29.5764706 38.7544219 29.5764706 39.8764531 31.3021849 39.8764531 31.3021849 40.7673594 29.5764706 40.7673594 29.5764706 42.0358594 32.5801681 42.0358594 32.5801681 43 28.6964706 43 28.6964706 37.8393281"
     style="fill:#1a1919;fill-rule:evenodd;stroke:none;stroke-width:1"
     transform="matrix(2.5064874,0,0,2.5064874,0,2.506487)" />
  <path
     d="m 91.819162,105.08679 -2.099551,-5.382208 -2.015301,5.382208 z m -3.03306,-7.736504 h 2.099552 l 5.407272,12.935154 h -2.458463 l -1.123919,-2.84267 h -5.938056 l -1.123919,2.84267 H 83.46308 Z"
     id="Fill-17"
     mask="none"
     inkscape:connector-curvature="0"
     style="fill:#1a1919;fill-rule:evenodd;stroke:none;stroke-width:2.50648737" />
  <path
     d="m 100.68412,99.58333 v 3.57692 h 4.98265 c 0.65885,0 0.99754,-0.18355 0.99754,-1.03906 v -1.4988 c 0,-0.855497 -0.33869,-1.03906 -0.99754,-1.03906 z m -2.16358,-2.233044 h 8.07974 c 1.44239,0 2.09955,0.703932 2.09955,2.507545 v 3.058229 c 0,1.7733 -0.65716,2.47723 -2.09955,2.47723 h -1.23008 l 4.26314,4.89215 h -3.13922 l -3.75257,-4.89215 h -2.05743 v 4.89215 h -2.16358 z"
     id="Fill-18"
     mask="none"
     inkscape:connector-curvature="0"
     style="fill:#1a1919;fill-rule:evenodd;stroke:none;stroke-width:2.50648737" />
  <path
     d="m 124.67226,107.86884 c 2.77862,0 4.15698,-0.88581 4.15698,-4.24885 0,-2.6911 -1.03967,-3.945719 -3.11731,-3.945719 h -3.86041 v 8.194569 z m -5.02645,-10.518554 h 6.04421 c 3.54194,0 5.38705,2.416607 5.38705,6.421264 0,4.37347 -1.99339,6.51389 -5.93806,6.51389 h -5.4932 z"
     id="Fill-19"
     mask="none"
     inkscape:connector-curvature="0"
     style="fill:#1a1919;fill-rule:evenodd;stroke:none;stroke-width:2.50648737" />
  <path
     d="M 136.54838,107.86884 H 142.783 V 97.350286 h 2.20571 v 9.876934 c 0,2.4166 -0.57291,3.05822 -2.35399,3.05822 h -5.93806 c -1.78108,0 -2.33209,-0.64162 -2.33209,-3.05822 v -9.876934 h 2.18381 v 10.518554"
     id="Fill-20"
     mask="none"
     inkscape:connector-curvature="0"
     style="fill:#1a1919;fill-rule:evenodd;stroke:none;stroke-width:2.50648737" />
  <polyline
     id="Fill-21"
     mask="none"
     points="59.4359664 37.8393281 60.0363025 37.8393281 63.0736134 41.2672344 63.0736134 37.8393281 63.8608403 37.8393281 63.8608403 43 63.2598319 43 60.2312605 39.5230469 60.2312605 43 59.4359664 43 59.4359664 37.8393281"
     style="fill:#1a1919;fill-rule:evenodd;stroke:none;stroke-width:1"
     transform="matrix(2.5064874,0,0,2.5064874,0,2.506487)" />
  <polyline
     id="Fill-22"
     mask="none"
     points="65.4601681 37.8393281 66.3394958 37.8393281 66.3394958 42.0358594 69.1489076 42.0358594 69.1489076 43 65.4601681 43 65.4601681 37.8393281"
     style="fill:#1a1919;fill-rule:evenodd;stroke:none;stroke-width:1"
     transform="matrix(2.5064874,0,0,2.5064874,0,2.506487)" />
  <path
     d="m 177.7525,107.80821 h 7.23048 v -8.073315 h -7.23048 z m 0.14829,-10.457924 h 6.93391 c 1.76086,0 2.33377,0.580996 2.33377,3.058224 v 6.81871 c 0,2.44691 -0.57291,3.05822 -2.33377,3.05822 h -6.93392 c -1.78108,0 -2.33377,-0.61131 -2.33377,-3.05822 v -6.81871 c 0,-2.477228 0.57291,-3.058224 2.33378,-3.058224 z"
     id="Fill-23"
     mask="none"
     inkscape:connector-curvature="0"
     style="fill:#1a1919;fill-rule:evenodd;stroke:none;stroke-width:2.50648737" />
  <path
     d="m 193.10653,99.58333 v 3.42367 h 4.98433 c 0.65716,0 0.99585,-0.18355 0.99585,-1.03906 v -1.34555 c 0,-0.855497 -0.33869,-1.03906 -0.99585,-1.03906 z m -2.16358,-2.233044 h 8.07973 c 1.44239,0 2.09955,0.673618 2.09955,2.507545 v 2.874669 c 0,1.80361 -0.65716,2.50754 -2.09955,2.50754 h -5.91615 v 5.0454 h -2.16358 z"
     id="Fill-24"
     mask="none"
     inkscape:connector-curvature="0"
     style="fill:#1a1919;fill-rule:evenodd;stroke:none;stroke-width:2.50648737" />
  <polyline
     id="Fill-25"
     mask="none"
     points="84.232605 37.8393281 85.112605 37.8393281 85.112605 39.8038906 87.8373109 39.8038906 87.8373109 37.8393281 88.7085714 37.8393281 88.7085714 43 87.8373109 43 87.8373109 40.8285 85.112605 40.8285 85.112605 43 84.232605 43 84.232605 37.8393281"
     style="fill:#1a1919;fill-rule:evenodd;stroke:none;stroke-width:1"
     transform="matrix(2.5064874,0,0,2.5064874,0,2.506487)" />
  <path
     d="m 233.35355,105.08679 -2.09955,-5.382208 -2.0153,5.382208 z m -3.03306,-7.736504 h 2.09956 l 5.40727,12.935154 h -2.46015 l -1.12392,-2.84267 h -5.93806 l -1.12391,2.84267 h -2.18381 z"
     id="Fill-26"
     mask="none"
     inkscape:connector-curvature="0"
     style="fill:#1a1919;fill-rule:evenodd;stroke:none;stroke-width:2.50648737" />
  <polyline
     id="Fill-27"
     mask="none"
     points="95.7734454 37.8393281 96.3737815 37.8393281 99.4117647 41.2672344 99.4117647 37.8393281 100.198319 37.8393281 100.198319 43 99.5973109 43 96.5687395 39.5230469 96.5687395 43 95.7734454 43 95.7734454 37.8393281"
     style="fill:#1a1919;fill-rule:evenodd;stroke:none;stroke-width:1"
     transform="matrix(2.5064874,0,0,2.5064874,0,2.506487)" />
  <path
     d="m 260.18099,107.86884 c 2.77691,0 4.15695,-0.88581 4.15695,-4.24885 0,-2.6911 -1.04134,-3.945719 -3.11899,-3.945719 h -3.85872 v 8.194569 z m -5.02814,-10.518554 h 6.04419 c 3.54365,0 5.38875,2.416607 5.38875,6.421264 0,4.37347 -1.99509,6.51389 -5.93975,6.51389 h -5.49319 z"
     id="Fill-28"
     mask="none"
     inkscape:connector-curvature="0"
     style="fill:#1a1919;fill-rule:evenodd;stroke:none;stroke-width:2.50648737" />
  <polyline
     id="Fill-29"
     mask="none"
     points="107.668571 37.8393281 111.509916 37.8393281 111.509916 38.7544219 108.548571 38.7544219 108.548571 39.8764531 110.274958 39.8764531 110.274958 40.7673594 108.548571 40.7673594 108.548571 42.0358594 111.552269 42.0358594 111.552269 43 107.668571 43 107.668571 37.8393281"
     style="fill:#1a1919;fill-rule:evenodd;stroke:none;stroke-width:1"
     transform="matrix(2.5064874,0,0,2.5064874,0,2.506487)" />
  <polyline
     id="Fill-30"
     mask="none"
     points="112.812773 37.8393281 113.693445 37.8393281 113.693445 42.0358594 116.501513 42.0358594 116.501513 43 112.812773 43 112.812773 37.8393281"
     style="fill:#1a1919;fill-rule:evenodd;stroke:none;stroke-width:1"
     transform="matrix(2.5064874,0,0,2.5064874,0,2.506487)" />
  <path
     d="m 296.59117,99.674271 v 2.721419 h 5.8319 c 1.78279,0 2.33379,0.61131 2.33379,3.05823 v 1.7733 c 0,2.4166 -0.551,3.05822 -2.33379,3.05822 h -5.80999 c -1.80299,0 -2.37422,-0.64162 -2.37422,-3.05822 v -0.36713 l 1.9496,-0.51868 v 1.52743 h 6.59522 v -2.96561 h -5.80999 c -1.76086,0 -2.35399,-0.61131 -2.35399,-3.05823 v -1.43649 c 0,-2.446915 0.59313,-3.058224 2.35399,-3.058224 h 5.323 c 1.65303,0 2.35399,0.550683 2.35399,2.814044 v 0.30481 l -1.88723,0.581 v -1.375869 h -6.17228"
     id="Fill-31"
     mask="none"
     inkscape:connector-curvature="0"
     style="fill:#1a1919;fill-rule:evenodd;stroke:none;stroke-width:2.50648737" />
  <path
     d="m 310.0192,99.674271 v 2.721419 h 5.83192 c 1.78106,0 2.33377,0.61131 2.33377,3.05823 v 1.7733 c 0,2.4166 -0.55271,3.05822 -2.33377,3.05822 h -5.81001 c -1.80299,0 -2.3759,-0.64162 -2.3759,-3.05822 v -0.36713 l 1.95128,-0.51868 v 1.52743 h 6.59522 v -2.96561 h -5.81167 c -1.75918,0 -2.35231,-0.61131 -2.35231,-3.05823 v -1.43649 c 0,-2.446915 0.59313,-3.058224 2.35231,-3.058224 h 5.32471 c 1.653,0 2.35399,0.550683 2.35399,2.814044 v 0.30481 l -1.88726,0.581 v -1.375869 h -6.17228"
     id="Fill-32"
     mask="none"
     inkscape:connector-curvature="0"
     style="fill:#1a1919;fill-rule:evenodd;stroke:none;stroke-width:2.50648737" />
  <polyline
     id="Fill-33"
     mask="none"
     points="129.803697 40.6820313 127.848739 37.8393281 129.02521 37.8393281 130.303193 39.7669375 131.597311 37.8393281 132.621176 37.8393281 130.674958 40.6578438 130.674958 43 129.803697 43 129.803697 40.6820313"
     style="fill:#1a1919;fill-rule:evenodd;stroke:none;stroke-width:1"
     transform="matrix(2.5064874,0,0,2.5064874,0,2.506487)" />
  <path
     d="m 336.65622,99.674271 v 2.721419 h 5.83022 c 1.78276,0 2.33376,0.61131 2.33376,3.05823 v 1.7733 c 0,2.4166 -0.551,3.05822 -2.33376,3.05822 h -5.80999 c -1.80131,0 -2.37422,-0.64162 -2.37422,-3.05822 v -0.36713 l 1.94957,-0.51868 v 1.52743 h 6.59524 v -2.96561 h -5.81001 c -1.75918,0 -2.35229,-0.61131 -2.35229,-3.05823 v -1.43649 c 0,-2.446915 0.59311,-3.058224 2.35229,-3.058224 h 5.32303 c 1.65471,0 2.35567,0.550683 2.35567,2.814044 v 0.30481 l -1.88723,0.581 v -1.375869 h -6.17228"
     id="Fill-34"
     mask="none"
     inkscape:connector-curvature="0"
     style="fill:#1a1919;fill-rule:evenodd;stroke:none;stroke-width:2.50648737" />
  <polyline
     id="Fill-35"
     mask="none"
     points="141.208739 43 140.337479 43 140.337479 38.7665156 138.611765 38.7665156 138.611765 37.8393281 142.943193 37.8393281 142.943193 38.7665156 141.208739 38.7665156 141.208739 43"
     style="fill:#1a1919;fill-rule:evenodd;stroke:none;stroke-width:1"
     transform="matrix(2.5064874,0,0,2.5064874,0,2.506487)" />
  <polyline
     id="Fill-36"
     mask="none"
     points="144.068571 37.8393281 147.909916 37.8393281 147.909916 38.7544219 144.949244 38.7544219 144.949244 39.8764531 146.674958 39.8764531 146.674958 40.7673594 144.949244 40.7673594 144.949244 42.0358594 147.952941 42.0358594 147.952941 43 144.068571 43 144.068571 37.8393281"
     style="fill:#1a1919;fill-rule:evenodd;stroke:none;stroke-width:1"
     transform="matrix(2.5064874,0,0,2.5064874,0,2.506487)" />
  <polyline
     id="Fill-37"
     mask="none"
     points="149.212773 37.8393281 149.915294 37.8393281 151.666555 40.9017344 153.409748 37.8393281 154.111597 37.8393281 154.111597 43 153.299496 43 153.299496 39.4498125 151.700168 42.3778438 151.531429 42.3778438 149.915294 39.5351406 149.915294 43 149.212773 43 149.212773 37.8393281"
     style="fill:#1a1919;fill-rule:evenodd;stroke:none;stroke-width:1"
     transform="matrix(2.5064874,0,0,2.5064874,0,2.506487)" />
  <polyline
     id="Fill-38"
     mask="none"
     points="155.702185 37.8393281 159.543529 37.8393281 159.543529 38.7544219 156.582857 38.7544219 156.582857 39.8764531 158.308571 39.8764531 158.308571 40.7673594 156.582857 40.7673594 156.582857 42.0358594 159.585882 42.0358594 159.585882 43 155.702185 43 155.702185 37.8393281"
     style="fill:#1a1919;fill-rule:evenodd;stroke:none;stroke-width:1"
     transform="matrix(2.5064874,0,0,2.5064874,0,2.506487)" />
</svg>
