<?xml version="1.0" encoding="UTF-8" standalone="no"?>
<!-- Created with Inkscape (http://www.inkscape.org/) -->

<svg
   xmlns:dc="http://purl.org/dc/elements/1.1/"
   xmlns:cc="http://creativecommons.org/ns#"
   xmlns:rdf="http://www.w3.org/1999/02/22-rdf-syntax-ns#"
   xmlns:svg="http://www.w3.org/2000/svg"
   xmlns="http://www.w3.org/2000/svg"
   xmlns:sodipodi="http://sodipodi.sourceforge.net/DTD/sodipodi-0.dtd"
   xmlns:inkscape="http://www.inkscape.org/namespaces/inkscape"
   width="301.79468"
   height="120.5573"
   viewBox="0 0 79.848836 31.897052"
   version="1.1"
   id="svg8"
   inkscape:version="0.92.3 (2405546, 2018-03-11)"
   sodipodi:docname="nexen.svg">
  <defs
     id="defs2" />
  <sodipodi:namedview
     id="base"
     pagecolor="#00ffff"
     bordercolor="#666666"
     borderopacity="1.0"
     inkscape:pageopacity="0"
     inkscape:pageshadow="2"
     inkscape:zoom="3.959798"
     inkscape:cx="180.54658"
     inkscape:cy="38.72218"
     inkscape:document-units="px"
     inkscape:current-layer="layer1"
     showgrid="false"
     units="px"
     fit-margin-left="0.5"
     fit-margin-right="0.5"
     fit-margin-bottom="0.5"
     fit-margin-top="0.5"
     inkscape:window-width="1920"
     inkscape:window-height="1001"
     inkscape:window-x="-9"
     inkscape:window-y="-9"
     inkscape:window-maximized="1" />
  <metadata
     id="metadata5">
    <rdf:RDF>
      <cc:Work
         rdf:about="">
        <dc:format>image/svg+xml</dc:format>
        <dc:type
           rdf:resource="http://purl.org/dc/dcmitype/StillImage" />
        <dc:title></dc:title>
      </cc:Work>
    </rdf:RDF>
  </metadata>
  <g
     inkscape:label="Layer 1"
     inkscape:groupmode="layer"
     id="layer1"
     transform="translate(-28.991885,-55.776753)">
    <g
       id="surface13453"
       transform="matrix(0.17606072,0,0,0.17606072,-4.4518416,23.660358)">
      <path
         id="path3713"
         d="m 262.13281,349.13672 v -9.20703 h 22.19922 v -9.83594 H 262.13281 V 318.6875 h 25.26172 v -9.82813 h -40.78516 v 39.36329 c 0,10.10937 4.67969,14.60937 15.16797,14.60937 h 26.45313 v -9.83984 h -21.71094 c -2.86719,0 -4.38672,-1.33203 -4.38672,-3.85547"
         style="fill:#211e1e;fill-opacity:1;fill-rule:nonzero;stroke:none"
         inkscape:connector-curvature="0" />
      <path
         id="path3715"
         d="m 363.41797,349.13672 v -9.20703 h 22.19531 v -9.83594 H 363.41797 V 318.6875 h 25.25781 v -9.82813 h -40.78906 v 39.36329 c 0,10.10937 4.67969,14.60937 15.17187,14.60937 h 26.44922 v -9.83984 h -21.70703 c -2.875,0 -4.38281,-1.33203 -4.38281,-3.85547"
         style="fill:#211e1e;fill-opacity:1;fill-rule:nonzero;stroke:none"
         inkscape:connector-curvature="0" />
      <path
         id="path3717"
         d="m 616.64062,349.13672 v -9.21094 h 22.19922 v -9.83203 H 616.64062 V 318.6875 h 25.25782 v -9.82813 h -40.78125 v 39.36329 c 0,10.10546 4.67187,14.60937 15.16797,14.60937 h 26.44921 v -9.83984 h -21.71093 c -2.86719,0 -4.38282,-1.33203 -4.38282,-3.85547"
         style="fill:#211e1e;fill-opacity:1;fill-rule:nonzero;stroke:none"
         inkscape:connector-curvature="0" />
      <path
         id="path3719"
         d="m 520.40234,362.83203 h 15.04297 v -53.97266 h -15.04297 z m 0,0"
         style="fill:#211e1e;fill-opacity:1;fill-rule:nonzero;stroke:none"
         inkscape:connector-curvature="0" />
      <path
         id="path3721"
         d="m 578.69531,326.07422 c 0,2.46094 -0.91015,4.35156 -2.54687,5.32422 -1.75782,1.04687 -4.61328,1.53515 -8.96875,1.53515 h -5.39453 v -14.4414 h 5.39453 c 4.78515,0 7.35547,0.44531 8.88281,1.54297 1.79687,1.30078 2.63281,3.2539 2.63281,5.64453 z m 2.89063,12.49219 0.51953,-0.14844 c 0.10937,-0.0312 11.07812,-2.65625 11.07812,-13.32422 v -0.75781 c 0,-1.26953 -0.40234,-12.44141 -14.54297,-14.83203 -2.5039,-0.42188 -5.30078,-0.64454 -8.78125,-0.64454 h -23.32031 v 53.97266 h 15.2461 v -20.10547 h 4.35546 c 9.98047,0 12.01954,12.32813 14.625,20.10547 h 16.48047 c -1.07422,-2.38281 -1.92968,-3.71875 -4.0625,-9.45703 -4.60156,-12.41016 -11.59765,-14.80859 -11.59765,-14.80859"
         style="fill:#211e1e;fill-opacity:1;fill-rule:nonzero;stroke:none"
         inkscape:connector-curvature="0" />
      <path
         id="path3723"
         d="m 485.32031,362.83203 h 15.32031 V 318.6875 h 15.20313 v -9.82813 h -46.88281 v 9.82813 h 16.35937 z m 0,0"
         style="fill:#211e1e;fill-opacity:1;fill-rule:nonzero;stroke:none"
         inkscape:connector-curvature="0" />
      <path
         id="path3725"
         d="m 210.40625,316.67969 c -3.08984,-7.71094 -9.77344,-7.82032 -9.84766,-7.82032 h -9.85156 v 53.97266 h 12.48438 v -38.28906 l 0.37109,0.91406 c 0.0625,0.16406 7.16797,16.09375 11.72266,27.70313 3.3125,8.42187 6.75781,9.61718 11.125,9.67187 h 11.28515 v -53.97266 h -12.52734 v 40.77344 z m 0,0"
         style="fill:#211e1e;fill-opacity:1;fill-rule:nonzero;stroke:none"
         inkscape:connector-curvature="0" />
      <path
         id="path3727"
         d="m 416.43359,316.67969 c -3.08593,-7.71094 -9.77343,-7.82032 -9.84765,-7.82032 h -9.84375 v 53.97266 h 12.48047 v -38.28906 l 0.37109,0.91406 c 0.0664,0.16406 7.16797,16.09375 11.73047,27.70313 3.30469,8.42187 6.7539,9.61718 11.11719,9.67187 h 11.27734 v -53.97266 h -12.51953 v 40.77344 z m 0,0"
         style="fill:#211e1e;fill-opacity:1;fill-rule:nonzero;stroke:none"
         inkscape:connector-curvature="0" />
      <path
         id="path3729"
         d="m 327.00391,334.51172 18.75,-25.65235 h -13.125 c -2.54297,0 -4.36719,1.15625 -6.29688,3.98829 l -7.84375,12.21875 -7.84766,-12.22657 c -1.92968,-2.82422 -3.7539,-3.98047 -6.29687,-3.98047 h -13.12109 l 18.9375,26.21485 -0.0742,0.11328 -19.35938,27.64844 h 10.92969 c 3.55078,0 5.37891,-0.88672 7.25781,-3.50391 l 9.57422,-15.37109 0.18359,0.30468 9.39454,15.07813 c 1.875,2.60547 3.69921,3.49219 7.24218,3.49219 H 346.25 L 326.92578,334.625 Z m 0,0"
         style="fill:#211e1e;fill-opacity:1;fill-rule:nonzero;stroke:none"
         inkscape:connector-curvature="0" />
      <path
         id="path3731"
         d="M 317.59766,195.50391 H 515.84375 V 183.16797 H 317.59766 Z m 0,0"
         style="fill:#7f288f;fill-opacity:1;fill-rule:nonzero;stroke:none"
         inkscape:connector-curvature="0" />
      <path
         id="path3733"
         d="M 317.59766,282.11719 H 515.84375 V 269.78125 H 317.59766 Z m 0,0"
         style="fill:#7f288f;fill-opacity:1;fill-rule:nonzero;stroke:none"
         inkscape:connector-curvature="0" />
      <path
         id="path3735"
         d="m 465.33594,226.8125 v 0.80859 H 443.53906 V 237.625 h 21.79688 v 12.57422 h -27.34766 l -13.51172,-17.33594 13.875,-17.78125 h 26.98438 z m -69.98438,23.38672 h -27.25 V 237.625 h 21.79688 v -10.00391 h -21.79688 v -12.53906 h 26.91406 l 13.8711,17.78125 z m 107.09375,-45.10938 v 41.73047 l -15.99609,-33.80078 c -1.15235,-2.60547 -2.60938,-4.35547 -4.06641,-5.53125 -3.21094,-2.58984 -6.42578,-2.40234 -6.42578,-2.40234 h -10.59375 l -34.8125,-0.004 -13.85547,17.77734 -13.88281,-17.77734 -39.03516,0.004 c -3.27343,0 -5.37109,0.99218 -6.71484,2.26953 -2.43359,2.3125 -2.38281,5.5664 -2.38281,5.5664 v 33.89844 l -15.9961,-33.80078 c -1.15234,-2.60547 -2.60937,-4.35547 -4.0664,-5.53125 -3.21094,-2.58984 -6.42578,-2.40234 -6.42578,-2.40234 h -10.59375 v 55.12109 h 13.41406 v -37.91797 c 0,0 15.1875,32.14844 15.70312,33.22266 0.34766,0.72265 1.39453,2.52734 4,3.67969 1.28907,0.57031 2.96094,0.98046 5.1211,1.01562 l 47.29687,0.0195 13.53516,-17.35937 13.53906,17.33984 h 35.15625 l 4.32422,0.0273 c 3.27734,0 5.375,-0.99609 6.71484,-2.27343 2.4336,-2.32422 2.375,-5.66407 2.375,-5.66407 v -30.01953 c 0,0 15.1875,32.16016 15.70313,33.23438 0.34765,0.72265 1.39453,2.52734 4,3.67969 1.28906,0.57031 2.59375,0.87109 5.12109,0.98828 -0.0273,0.0312 2.78516,0.0273 5.72266,0.0273 3.1875,0 6.51953,0 6.51953,0 v -55.11719 z m 0,0"
         style="fill:#7f288f;fill-opacity:1;fill-rule:nonzero;stroke:none"
         inkscape:connector-curvature="0" />
    </g>
  </g>
</svg>
