<?xml version="1.0" encoding="UTF-8" standalone="no"?>
<svg
   xmlns:dc="http://purl.org/dc/elements/1.1/"
   xmlns:cc="http://creativecommons.org/ns#"
   xmlns:rdf="http://www.w3.org/1999/02/22-rdf-syntax-ns#"
   xmlns:svg="http://www.w3.org/2000/svg"
   xmlns="http://www.w3.org/2000/svg"
   xmlns:sodipodi="http://sodipodi.sourceforge.net/DTD/sodipodi-0.dtd"
   xmlns:inkscape="http://www.inkscape.org/namespaces/inkscape"
   inkscape:version="1.0 (4035a4fb49, 2020-05-01)"
   height="258.36459"
   width="400"
   sodipodi:docname="Uniroyal Logo 2020.svg"
   xml:space="preserve"
   viewBox="0 0 400.00001 258.36459"
   y="0px"
   x="0px"
   id="Ebene_1"
   version="1.1"><metadata
   id="metadata135"><rdf:RDF><cc:Work
       rdf:about=""><dc:format>image/svg+xml</dc:format><dc:type
         rdf:resource="http://purl.org/dc/dcmitype/StillImage" /><dc:title></dc:title></cc:Work></rdf:RDF></metadata><defs
   id="defs133">
	
	
	
	
	
	
	
	
	
	
	
	
	
	
	
	
	
	
	
	
	
	
	
	
	
	
	
	
	
	
	
</defs><sodipodi:namedview
   inkscape:current-layer="Ebene_1"
   inkscape:window-maximized="1"
   inkscape:window-y="-8"
   inkscape:window-x="-8"
   inkscape:cy="92.327715"
   inkscape:cx="291.09057"
   inkscape:zoom="1.1518259"
   fit-margin-bottom="0"
   fit-margin-right="0"
   fit-margin-left="0"
   fit-margin-top="0"
   inkscape:pagecheckerboard="true"
   showgrid="false"
   id="namedview131"
   inkscape:window-height="837"
   inkscape:window-width="1600"
   inkscape:pageshadow="2"
   inkscape:pageopacity="0"
   guidetolerance="10"
   gridtolerance="10"
   objecttolerance="10"
   borderopacity="1"
   bordercolor="#666666"
   pagecolor="#ffffff" />
<style
   id="style2"
   type="text/css">
	.st0{display:none;}
	.st1{display:inline;}
	.st2{display:inline;fill:#FFFFFF;}
	.st3{display:inline;fill:#E30613;}
	.st4{display:inline;fill:none;stroke:#E30613;stroke-width:1.8;stroke-miterlimit:3.8637;}
	.st5{fill-rule:evenodd;clip-rule:evenodd;fill:#1D1D1B;}
	.st6{fill:#1D1D1B;}
	.st7{fill:#E30613;stroke:#E30613;stroke-width:0.8504;stroke-miterlimit:3.8637;}
	.st8{fill:#FFFFFF;}
	.st9{fill:#E30613;}
</style>
<g
   transform="translate(-266.50001,-5.8000002)"
   id="g64"
   class="st0">
	<polygon
   id="polygon4"
   points="183.1,71.6 183.1,65.5 168.9,65.5 168.9,71.6 172.6,71.6 172.6,90.4 179.3,90.4 179.3,71.6 "
   class="st1" />
	<polygon
   id="polygon6"
   points="202.6,65.5 195.7,65.5 193.3,73.2 193.3,73.2 191,65.5 184,65.5 190.1,79.8 190.1,90.4 196.8,90.4 196.8,79.8 "
   class="st1" />
	<path
   id="path8"
   d="m 222.4,90.4 -5,-10.4 c 2.7,-1.1 3.9,-3.5 3.9,-6.2 0,-6.6 -4.2,-8.3 -10.1,-8.3 h -6.5 v 24.9 h 6.7 v -6.6 c 0,-1.2 -0.1,-2.4 -0.1,-3.7 l 0.1,-0.1 3.7,10.4 z M 211.4,77 v -6.1 c 1.8,-0.1 3.2,0.8 3.2,3 0,1.6 -1,3.2 -2.7,3.2 z"
   class="st1" />
	<polygon
   id="polygon10"
   points="236.9,84.5 231.2,84.5 231.2,80.7 236.3,80.7 236.3,74.8 231.2,74.8 231.2,71.4 236.9,71.4 236.9,65.5 224.4,65.5 224.4,90.4 236.9,90.4 "
   class="st1" />
	<polygon
   id="polygon12"
   points="14.3,71.6 14.3,65.5 0,65.5 0,71.6 3.7,71.6 3.7,90.4 10.4,90.4 10.4,71.6 "
   class="st1" />
	<polygon
   id="polygon14"
   points="26.7,65.5 26.7,74.4 23.5,74.4 23.5,65.5 16.8,65.5 16.8,90.4 23.5,90.4 23.5,80.3 26.7,80.3 26.7,90.4 33.5,90.4 33.5,65.5 "
   class="st1" />
	<polygon
   id="polygon16"
   points="49.8,84.5 44,84.5 44,80.7 49.2,80.7 49.2,74.8 44,74.8 44,71.4 49.8,71.4 49.8,65.5 37.3,65.5 37.3,90.4 49.8,90.4 "
   class="st1" />
	<path
   id="path18"
   d="M 81.1,90.4 76.1,80 C 78.8,78.9 80,76.5 80,73.8 80,67.2 75.8,65.5 69.9,65.5 h -6.5 v 24.9 h 6.7 V 83.8 C 70.1,82.6 70,81.4 70,80.1 L 70.1,80 73.8,90.4 Z M 70.1,77 v -6.1 c 1.8,-0.1 3.2,0.8 3.2,3 0,1.6 -1,3.2 -2.7,3.2 z"
   class="st1" />
	<path
   id="path20"
   d="M 100.9,90.4 95.6,65.5 h -8.2 l -6,24.9 h 6.9 l 0.6,-3.2 h 4.5 l 0.5,3.2 z M 89.8,81.9 90.7,76.1 C 91,74.5 91.1,73 91.3,71.4 h 0.1 c 0.2,1.6 0.3,3.1 0.5,4.7 l 0.7,5.8 z"
   class="st1" />
	<polygon
   id="polygon22"
   points="102.9,65.5 102.9,90.4 109.7,90.4 109.7,65.5 "
   class="st1" />
	<path
   id="path24"
   d="m 113.5,90.4 h 6.5 v -7.3 c 0,-2.3 -0.3,-4.7 -0.5,-7 l 0.1,-0.1 5,14.4 h 6.5 V 65.5 h -6.5 v 6.3 c 0,2.9 0.5,5.7 0.8,8.6 l -0.1,0.1 -5.4,-15 h -6.4 z"
   class="st1" />
	<polygon
   id="polygon26"
   points="399.8,96 251.2,96 251.2,0 399.8,0 "
   class="st2" />
	<polygon
   id="polygon28"
   points="398.5,94.7 252.5,94.7 252.5,1.3 398.5,1.3 "
   class="st1" />
	<polygon
   id="polygon30"
   points="397.2,93.4 253.8,93.4 253.8,2.6 397.2,2.6 "
   class="st2" />
	<polygon
   id="polygon32"
   points="374.8,47.9 374.8,4.3 395.5,4.3 395.5,61.9 367,61.9 "
   class="st3" />
	<polygon
   id="polygon34"
   points="255.5,61.9 255.5,4.3 317.3,4.3 317.3,48.2 325.1,61.9 "
   class="st3" />
	<polygon
   id="polygon36"
   points="328.6,34.7 341.7,12 337.2,4.3 345.6,4.3 350,12 335.7,36.9 350.2,61.9 341.9,61.9 328.6,39.1 328.6,49.6 335.7,61.9 327.4,61.9 319.2,47.7 319.2,4.3 331.1,4.3 335.6,12 328.6,24 "
   class="st1" />
	<polygon
   id="polygon38"
   points="372.9,4.3 372.9,47.4 364.7,61.9 356.3,61.9 341.8,36.9 356.1,12 351.8,4.3 360.1,4.3 363.3,9.9 363.3,4.3 "
   class="st1" />
	<polygon
   id="polygon40"
   points="363.3,59.5 350.2,36.9 363.3,14.1 363.3,24.8 356.3,36.9 363.3,48.9 "
   class="st2" />
	<path
   id="path42"
   d="m 372.4,80.1 c -1,0 -2.2,-0.1 -3.4,0 0.4,-3.5 0.9,-7 1.6,-10.4 z m 7.7,10.1 h -5.9 l -0.8,-4.8 h -5.2 l -0.8,4.8 h -5.9 l 4.3,-24.4 h 9.6 z"
   class="st1" />
	<polygon
   id="polygon44"
   points="395.6,90.2 382.1,90.2 382.1,65.8 387.9,65.8 387.9,85.2 395.6,85.2 "
   class="st1" />
	<polygon
   id="polygon46"
   points="351.4,90.2 351.4,81.3 344.2,65.8 350.8,65.8 354.4,75 357.7,65.8 364.1,65.8 357.3,81.3 357.3,90.2 "
   class="st1" />
	<polygon
   id="polygon48"
   points="298.6,65.8 304.4,65.8 304.4,90.2 298.6,90.2 "
   class="st1" />
	<path
   id="path50"
   d="m 288.6,80.6 0.1,0.1 c 0,-5 0,-10.4 0,-15 h 5.9 V 90.1 H 287 L 283.1,76 283,75.9 v 14.3 h -5.9 V 65.8 h 7.2 z"
   class="st1" />
	<path
   id="path52"
   d="M 262.4,65.8 V 85.3 H 267 V 65.8 h 5.6 v 22.1 c 0,1.3 -1,2.3 -2.3,2.3 h -11.7 c -1.3,0 -2.3,-1 -2.3,-2.3 V 65.8 Z"
   class="st1" />
	<path
   id="path54"
   d="m 318.8,70.9 v 5.6 h -4.3 v -5.6 z m 3.8,10.6 c -0.1,0 -0.2,0 -0.3,0.1 l 4.4,8.5 c -2.3,0 -4.2,0 -6.6,0 l -5.7,-10.7 v 10.7 h -6 V 65.8 h 14.1 c 1.3,0 2.3,1 2.3,2.3 v 11.2 c 0.1,1.2 -0.9,2.2 -2.2,2.2 z"
   class="st1" />
	<path
   id="path56"
   d="m 338.4,70.8 c -0.1,5.1 0,9.2 0,14.4 -1.4,0 -2.9,0 -4.4,0 V 70.8 Z m -8,-5 h 11.7 c 1.3,0 2.3,1 2.3,2.3 v 19.8 c 0,1.3 -1,2.3 -2.3,2.3 h -11.7 c -1.3,0 -2.3,-1 -2.3,-2.3 V 68.1 c 0,-1.3 1.1,-2.3 2.3,-2.3 z"
   class="st1" />
	<path
   id="path58"
   d="m 179,51.8 -0.2,0.4 c -4.7,-0.9 -9,0.6 -12.9,3.2 -6.2,-2.8 -11.4,-2.6 -17.4,0.2 -4.9,-3.2 -11.8,-2.9 -16.9,-0.6 -4.3,-3.2 -7.9,-3.9 -13.2,-3.9 8,-32 55.9,-28.3 60.6,0.7 z m 4.1,4.8 h -0.5 c -5.5,-3.3 -12.1,-0.9 -16.6,2.8 -3.9,-2.3 -12,-4.7 -15.6,-0.8 L 150.2,88 c 0,5 -9.8,5.9 -10.4,0.8 1.1,-0.3 2.3,-0.5 3.4,-0.7 0.6,0.4 1.4,0.8 2.1,0.6 l 1.3,-1.4 V 58.7 c -4.1,-3.9 -11.4,-2.1 -15.7,0.3 -6.3,-5.2 -9.5,-5.5 -17.1,-3.3 -0.2,-1.6 0.3,-3.4 0.7,-5 4,-15.3 15.9,-23.5 30.8,-25.9 3.3,-6.9 6.5,0.1 6.7,0.2 1.4,0.5 29.5,2.6 31.1,31.6 z"
   class="st1" />
	<path
   id="path60"
   d="m 179,51.8 -0.2,0.4 c -4.7,-0.9 -9,0.6 -12.9,3.2 -6.2,-2.8 -11.4,-2.6 -17.4,0.2 -4.9,-3.2 -11.8,-2.9 -16.9,-0.6 -4.3,-3.2 -7.9,-3.9 -13.2,-3.9 8,-32 55.9,-28.3 60.6,0.7 z"
   class="st3" />
	<path
   id="path62"
   d="m 179,51.8 -0.2,0.4 c -4.7,-0.9 -9,0.6 -12.9,3.2 -6.2,-2.8 -11.4,-2.6 -17.4,0.2 -4.9,-3.2 -11.8,-2.9 -16.9,-0.6 -4.3,-3.2 -7.9,-3.9 -13.2,-3.9 8,-32 55.9,-28.3 60.6,0.7 z"
   class="st4" />
</g>
<polygon
   transform="matrix(3.0007502,0,0,3.0007502,-799.69993,-17.404351)"
   class="st8"
   points="399.8,5.8 399.8,91.9 266.5,91.9 266.5,5.8 "
   id="polygon98" /><polygon
   transform="matrix(3.0007502,0,0,3.0007502,-799.69993,-17.404351)"
   class="st8"
   points="397.5,8.1 397.5,89.5 268.8,89.5 268.8,8.1 "
   id="polygon100" /><polygon
   transform="matrix(3.0007502,0,0,3.0007502,-799.69993,-17.404351)"
   class="st9"
   points="395.9,61.3 370.4,61.3 377.5,48.8 377.5,9.6 395.9,9.6 "
   id="polygon102" /><polygon
   transform="matrix(3.0007502,0,0,3.0007502,-799.69993,-17.404351)"
   class="st9"
   points="325.8,49 332.8,61.3 270.3,61.3 270.3,9.6 325.8,9.6 "
   id="polygon104" /><polygon
   transform="matrix(3.0007502,0,0,3.0007502,-799.69993,-17.404351)"
   class="st6"
   points="351.2,9.6 355.2,16.6 342.3,38.8 355.3,61.3 347.9,61.3 336,40.8 336,50.3 342.3,61.3 334.9,61.3 327.6,48.6 327.6,9.6 338.2,9.6 342.2,16.6 336,27.3 336,36.9 347.7,16.6 343.7,9.6 "
   id="polygon106" /><polygon
   transform="matrix(3.0007502,0,0,3.0007502,-799.69993,-17.404351)"
   class="st6"
   points="360.8,61.3 347.8,38.8 360.7,16.6 356.7,9.6 364.2,9.6 367.1,14.6 367.1,9.6 375.7,9.6 375.7,48.3 368.4,61.3 "
   id="polygon108" /><polygon
   transform="matrix(3.0007502,0,0,3.0007502,-799.69993,-17.404351)"
   class="st8"
   points="367.1,28 360.8,38.8 367.1,49.6 367.1,59.1 355.3,38.8 367.1,18.4 "
   id="polygon110" /><path
   style="stroke-width:3.00075"
   class="st5"
   d="m 326.48161,215.45386 c -2.70067,0 -6.0015,-0.30007 -9.00225,0 0.90022,-9.30232 2.4006,-18.90472 4.20105,-28.20705 z m 20.70518,27.00676 h -15.90398 l -2.10052,-12.90323 h -14.10353 l -2.10053,12.90323 h -15.90397 l 11.70292,-65.71643 h 25.80646 z"
   id="path112" /><polygon
   transform="matrix(3.0007502,0,0,3.0007502,-799.69993,-17.404351)"
   class="st6"
   points="389.1,64.8 389.1,82.2 396,82.2 396,86.6 384,86.6 384,64.8 "
   id="polygon114" /><polygon
   transform="matrix(3.0007502,0,0,3.0007502,-799.69993,-17.404351)"
   class="st6"
   points="355.9,64.8 359.1,73.1 362,64.8 367.8,64.8 361.8,78.7 361.8,86.6 356.4,86.6 356.4,78.7 349.9,64.8 "
   id="polygon116" /><polygon
   transform="matrix(3.0007502,0,0,3.0007502,-799.69993,-17.404351)"
   class="st6"
   points="309,86.6 309,64.8 314.3,64.8 314.3,86.6 "
   id="polygon118" /><path
   style="stroke-width:3.00075"
   class="st6"
   d="m 100.8252,216.95424 0.30007,0.30007 c 0,-13.50337 0,-27.90697 0,-40.21005 h 15.6039 v 65.71643 H 96.324072 l -10.50262,-38.10953 -0.30008,-0.30007 v 38.4096 h -15.90398 v -65.71643 h 19.20481 z"
   id="path120" /><path
   style="stroke-width:3.00075"
   class="st6"
   d="m 30.307572,177.04426 v 52.51313 h 12.60315 v -52.51313 h 15.30382 v 59.41485 c 0,3.30083 -2.70067,6.30158 -6.30157,6.30158 h -31.50788 c -3.30082,0 -6.30157,-2.70067 -6.30157,-6.30158 v -59.41485 z"
   id="path122" /><path
   style="stroke-width:3.00075"
   class="st5"
   d="m 182.14553,190.84771 v 15.00375 H 170.4426 v -15.00375 z m 10.20255,28.50713 c -0.30008,0 -0.60015,0 -0.90023,0.30007 l 12.003,22.80571 c -6.30157,0 -11.10277,0 -17.70442,0 L 170.4426,213.65341 v 28.80721 h -15.90398 v -65.41636 h 37.80946 c 3.30082,0 6.30157,2.70068 6.30157,6.30158 v 30.0075 c 0,3.30082 -3.00075,6.0015 -6.30157,6.0015 z"
   id="path124" /><path
   style="stroke-width:3.00075"
   class="st5"
   d="m 234.95873,190.24756 c -0.30008,13.80345 0,24.90623 0,38.70968 -3.90098,0 -7.80195,0 -11.70293,0 v -38.70968 z m -21.6054,-13.2033 h 31.50788 c 3.30082,0 6.30157,2.70068 6.30157,6.30158 v 53.41335 c 0,3.30083 -2.70067,6.30158 -6.30157,6.30158 h -31.50788 c -3.30083,0 -6.30158,-2.70068 -6.30158,-6.30158 v -53.71343 c 0,-3.30082 3.00075,-6.0015 6.30158,-6.0015 z"
   id="path126" />
</svg>
